# Blender 3.3.1
# www.blender.org
mtllib cube.mtl
o Cube
v -250.000000 -250.000000 250.000000
v -250.000000 250.000000 250.000000
v -250.000000 -250.000000 -250.000000
v -250.000000 250.000000 -250.000000
v 250.000000 -250.000000 250.000000
v 250.000000 250.000000 250.000000
v 250.000000 -250.000000 -250.000000
v 250.000000 250.000000 -250.000000
vn 1.0000 -0.0000 -0.0000
vn -0.0000 -0.0000 1.0000
vn -1.0000 -0.0000 -0.0000
vn -0.0000 -0.0000 -1.0000
vn -0.0000 1.0000 -0.0000
vn -0.0000 -1.0000 -0.0000
vt 0.000000 0.000000
vt 0.000000 1.000000
vt 0.000000 0.000000
vt 0.000000 0.000000
vt 0.000000 1.000000
vt 1.000000 0.000000
vt 1.000000 1.000000
vt 0.000000 1.000000
vt 0.000000 0.000000
vt 1.000000 0.000000
vt 0.000000 1.000000
vt 1.000000 1.000000
vt 1.000000 0.000000
vt 1.000000 0.000000
vt 1.000000 1.000000
vt 1.000000 1.000000
s 0
f 3/6/1 2/2/1 1/1/1
f 7/14/2 4/8/2 3/4/2
f 5/9/3 8/16/3 7/14/3
f 1/1/4 6/12/4 5/10/4
f 1/1/5 7/15/5 3/5/5
f 6/13/6 4/8/6 8/16/6
f 3/6/1 4/7/1 2/2/1
f 7/14/2 8/16/2 4/8/2
f 5/9/3 6/11/3 8/16/3
f 1/1/4 2/2/4 6/12/4
f 1/1/5 5/10/5 7/15/5
f 6/13/6 2/3/6 4/8/6
